# File created by Blade
# Date/Time:  Tue Apr 07 21:33:03 2015
# Frame Rate: 120.000 fps
#------------------------------------------------------
:FULLY-SPECIFIED
:DEGREES
908
root -14.173942 33.650552 15.596253 28.432144 -53.916756 -15.448417
Spine -10.830047 -10.734188 -0.235970
Head 19.049145 -9.253158 8.108560
LeftShoulder -15.338860 41.361915 21.052286
LeftArm 66.103583 -39.699771 -69.059514
LeftForeArm -0.949167 -0.000000 10.612698
LeftHand 15.498903 -0.000000 21.917822
LeftHandThumb1 -26.253704 0.000000 33.147579
RightShoulder -7.783495 0.211200 -27.743148
RightArm 11.801654 18.575598 48.953206
RightForeArm -10.785135 -0.000000 25.692098
RightHand 15.126815 0.000000 -18.514393
RightHandThumb1 -24.326973 -0.000000 -32.862282
LeftUpLeg -27.398825 -2.116711 12.396081
LeftLeg 12.600765 -0.000000 -0.000000
LeftFoot 0.796718 11.823876 -29.000436
LeftToeBase -8.230846 -0.000000 0.000000
RightUpLeg -7.449262 3.862237 4.682870
RightLeg 12.612839 -0.000000 -0.000000
RightFoot -10.004295 -15.975947 11.137879
RightToeBase -4.343721 -0.000000 0.000000
909
root -14.173210 33.653711 15.583572 28.541046 -54.047836 -15.695982
Spine -10.849310 -10.592024 -0.005643
Head 18.832800 -9.101481 8.023649
LeftShoulder -15.451834 41.423937 21.069042
LeftArm 66.111477 -39.911166 -69.208257
LeftForeArm -0.902103 -0.000000 10.487363
LeftHand 14.942468 0.000000 21.948000
LeftHandThumb1 -26.253704 0.000000 33.147579
RightShoulder -7.725234 0.294077 -27.724930
RightArm 11.949331 18.368350 49.133149
RightForeArm -11.085101 -0.000000 25.438646
RightHand 15.260381 0.000000 -18.347789
RightHandThumb1 -24.326973 -0.000000 -32.862282
LeftUpLeg -27.277511 -2.212665 12.603504
LeftLeg 12.614637 -0.000000 -0.000000
LeftFoot 0.792679 11.916906 -29.097512
LeftToeBase -8.545918 -0.000000 0.000000
RightUpLeg -7.307861 4.127644 4.726058
RightLeg 12.783265 -0.000000 -0.000000
RightFoot -9.935128 -15.926993 11.179759
RightToeBase -4.735010 -0.000000 0.000000
910
root -14.176942 33.658777 15.562354 28.649553 -54.218436 -15.942113
Spine -10.864778 -10.445413 0.170604
Head 18.612018 -8.959435 8.018957
LeftShoulder -15.517432 41.353460 21.141770
LeftArm 65.788794 -40.159216 -69.116360
LeftForeArm -0.963091 0.000000 10.370576
LeftHand 15.201845 -0.000000 21.604755
LeftHandThumb1 -26.253704 0.000000 33.147579
RightShoulder -7.632919 0.484231 -27.634496
RightArm 12.018599 18.123566 49.213012
RightForeArm -11.418121 -0.000000 25.266812
RightHand 15.321971 -0.000000 -17.709819
RightHandThumb1 -24.326973 -0.000000 -32.862282
LeftUpLeg -27.171397 -2.081833 12.785252
LeftLeg 12.684513 -0.000000 -0.000000
LeftFoot 1.016408 11.633845 -29.268495
LeftToeBase -9.049263 -0.000000 0.000000
RightUpLeg -7.148693 4.441254 4.769386
RightLeg 12.974096 -0.000000 -0.000000
RightFoot -10.005413 -15.851326 11.398909
RightToeBase -4.732123 -0.000000 0.000000
911
root -14.170770 33.662443 15.542810 28.662052 -54.369250 -16.017267
Spine -10.937680 -10.321928 0.283809
Head 18.393413 -8.846839 7.992275
LeftShoulder -15.581567 41.377603 21.164071
LeftArm 65.598984 -40.464495 -69.085729
LeftForeArm -0.971541 -0.000000 10.215243
LeftHand 15.197360 -0.000000 21.042356
LeftHandThumb1 -26.253704 0.000000 33.147579
RightShoulder -7.563014 0.564429 -27.551376
RightArm 12.125183 17.880059 49.321482
RightForeArm -11.770069 0.000000 25.061305
RightHand 14.995597 -0.000000 -17.532297
RightHandThumb1 -24.326973 -0.000000 -32.862282
LeftUpLeg -27.184850 -1.886269 12.857336
LeftLeg 12.849756 -0.000000 -0.000000
LeftFoot 1.365546 11.191155 -29.580110
LeftToeBase -9.651693 -0.000000 0.000000
RightUpLeg -7.055978 4.612760 4.716057
RightLeg 13.242563 -0.000000 -0.000000
RightFoot -10.018246 -15.693955 11.394895
RightToeBase -4.900094 -0.000000 0.000000
912
root -14.162371 33.665776 15.519370 28.597923 -54.491331 -15.978116
Spine -11.021768 -10.244665 0.335213
Head 18.151010 -8.705850 8.037648
LeftShoulder -15.626197 41.414715 21.207497
LeftArm 65.321293 -40.793078 -68.986342
LeftForeArm -1.108273 -0.000000 10.079235
LeftHand 15.702066 -0.000000 19.623075
LeftHandThumb1 -26.253704 0.000000 33.147579
RightShoulder -7.495248 0.639239 -27.481279
RightArm 12.186312 17.676746 49.487670
RightForeArm -12.076063 -0.000000 24.864250
RightHand 15.245817 0.000000 -17.318861
RightHandThumb1 -24.326973 -0.000000 -32.862282
LeftUpLeg -27.250068 -1.600715 12.835318
LeftLeg 13.026837 -0.000000 -0.000000
LeftFoot 1.858033 10.688609 -29.719614
LeftToeBase -10.271951 -0.000000 0.000000
RightUpLeg -6.940780 4.730367 4.616546
RightLeg 13.439504 -0.000000 -0.000000
RightFoot -10.084029 -15.535220 11.572436
RightToeBase -4.842036 -0.000000 0.000000
913
root -14.150825 33.669798 15.489565 28.487366 -54.564348 -15.840155
Spine -11.142421 -10.194655 0.346829
Head 17.911846 -8.650563 8.069640
LeftShoulder -15.674242 41.412148 21.247082
LeftArm 64.929421 -41.014242 -68.655102
LeftForeArm -1.039335 -0.000000 9.874895
LeftHand 15.386698 0.000000 20.493027
LeftHandThumb1 -26.253704 0.000000 33.147579
RightShoulder -7.455394 0.679329 -27.409362
RightArm 12.228808 17.454669 49.669583
RightForeArm -12.361022 -0.000000 24.660146
RightHand 15.353933 0.000000 -17.388694
RightHandThumb1 -24.326973 -0.000000 -32.862282
LeftUpLeg -27.410864 -1.268777 12.750511
LeftLeg 13.251053 -0.000000 -0.000000
LeftFoot 2.443119 10.136641 -29.786157
LeftToeBase -10.925298 -0.000000 0.000000
RightUpLeg -6.860427 4.773475 4.489133
RightLeg 13.665891 -0.000000 -0.000000
RightFoot -10.082422 -15.401945 11.554695
RightToeBase -5.086680 -0.000000 0.000000
